<?xml version="1.0" standalone="no"?>
<!DOCTYPE svg PUBLIC "-//W3C//DTD SVG 20010904//EN"
 "http://www.w3.org/TR/2001/REC-SVG-20010904/DTD/svg10.dtd">
<svg version="1.0" xmlns="http://www.w3.org/2000/svg"
 width="628.000000pt" height="626.000000pt" viewBox="0 0 628.000000 626.000000"
 preserveAspectRatio="xMidYMid meet">

<g transform="translate(0.000000,626.000000) scale(0.100000,-0.100000)"
fill="#000000" stroke="none">
<path d="M3007 4486 c-31 -13 -72 -35 -90 -48 -27 -21 -37 -23 -67 -15 -19 5
-69 7 -110 5 -127 -7 -227 -67 -297 -175 -22 -35 -41 -53 -53 -53 -37 0 -121
-38 -174 -79 -67 -52 -120 -140 -136 -229 -12 -63 -16 -70 -71 -120 -39 -36
-69 -75 -91 -120 -30 -60 -33 -75 -33 -157 0 -54 6 -103 14 -123 13 -30 12
-36 -20 -100 -32 -63 -34 -73 -34 -167 1 -88 4 -107 28 -155 15 -31 41 -72 58
-93 28 -34 30 -43 32 -124 2 -77 6 -97 35 -155 38 -78 95 -136 174 -178 32
-17 58 -37 58 -43 0 -29 53 -121 94 -165 69 -74 183 -122 287 -122 20 0 41
-13 74 -46 25 -25 72 -58 103 -72 50 -24 69 -27 162 -27 84 0 114 4 150 21
l44 20 59 -24 c51 -20 73 -23 146 -20 104 4 182 36 251 102 42 40 50 44 114
50 160 16 305 133 339 276 4 18 21 32 55 47 139 64 239 240 216 382 -6 36 -3
44 29 82 50 58 76 119 86 199 11 84 0 148 -37 221 -22 43 -27 61 -20 80 57
152 -7 359 -136 439 -29 18 -34 26 -39 75 -15 151 -152 298 -299 322 -32 5
-42 12 -57 42 -39 74 -124 143 -215 174 -54 19 -153 22 -204 8 -27 -8 -36 -6
-60 13 -92 77 -250 99 -365 52z m359 -211 c315 -64 606 -289 753 -582 271
-541 51 -1196 -494 -1471 -81 -40 -241 -88 -344 -103 -109 -15 -281 -6 -391
21 -406 100 -714 411 -816 825 -22 88 -29 298 -14 392 57 356 260 644 571 812
116 63 237 100 404 125 56 8 251 -3 331 -19z"/>
<path d="M3030 4239 c-423 -42 -784 -354 -897 -775 -23 -88 -26 -117 -26 -259
0 -141 3 -172 26 -257 52 -197 151 -362 297 -501 318 -301 787 -370 1178 -173
265 133 449 356 539 651 25 84 27 102 27 280 0 178 -2 196 -27 278 -37 119
-77 204 -141 301 -214 320 -587 494 -976 455z m136 -164 c98 -58 128 -190 61
-272 -17 -21 -22 -35 -17 -58 8 -39 2 -55 -20 -55 -24 0 -29 8 -37 65 -5 41
-3 49 22 75 60 63 37 160 -49 201 -85 42 -168 -2 -190 -101 -10 -43 -17 -55
-32 -55 -42 0 -21 127 29 172 64 59 160 71 233 28z m-312 -65 c16 -6 26 -17
26 -29 0 -25 -15 -29 -61 -17 -77 20 -172 -38 -185 -113 -11 -65 -15 -72 -37
-69 -69 10 3 176 96 222 36 17 122 21 161 6z m-164 -255 c22 -26 -5 -45 -64
-45 -90 0 -146 -54 -146 -140 0 -49 22 -95 53 -112 12 -7 49 -15 82 -18 l59
-5 30 -67 c24 -54 27 -70 17 -82 -19 -23 -39 -8 -62 45 -20 46 -24 49 -57 49
-117 0 -205 126 -172 246 16 55 77 118 128 132 58 15 118 14 132 -3z m420 -10
c17 -20 0 -40 -48 -56 -42 -14 -130 -68 -151 -92 -8 -11 8 -6 45 13 67 34 136
55 211 65 58 7 65 1 78 -66 l6 -35 70 35 c91 45 98 40 123 -73 20 -92 18 -103
-24 -108 -23 -3 -25 0 -26 37 0 52 -13 105 -25 105 -6 0 -24 -7 -41 -16 -17
-9 -39 -13 -50 -11 -14 4 -18 1 -14 -11 3 -9 10 -36 15 -58 11 -40 13 -41 50
-40 21 0 50 -6 64 -13 34 -18 60 -74 52 -111 -7 -31 -50 -80 -70 -80 -7 0 -43
-21 -81 -46 -106 -72 -288 -148 -404 -169 -73 -14 -70 -9 -70 -94 0 -106 -23
-230 -65 -353 -19 -55 -35 -104 -35 -108 0 -4 26 -19 58 -33 179 -81 451 -87
644 -17 104 38 164 77 233 151 144 157 191 389 110 548 -44 88 -140 161 -231
176 -69 12 -75 15 -72 38 3 19 9 22 50 20 125 -7 241 -91 305 -221 38 -75 38
-77 38 -196 0 -112 -3 -127 -31 -198 -62 -153 -168 -270 -308 -338 -93 -45
-167 -66 -281 -79 -84 -10 -253 0 -340 19 -72 15 -178 58 -211 85 l-28 22 42
134 c54 173 62 218 62 356 0 129 -4 123 94 138 119 17 311 96 426 175 30 21
65 41 77 45 43 12 41 80 -2 91 -15 4 -36 -1 -55 -13 -29 -17 -32 -17 -44 -2
-6 9 -25 71 -41 138 -28 116 -30 121 -54 121 -44 -1 -159 -46 -263 -105 -54
-30 -102 -55 -107 -55 -23 0 -30 27 -14 51 82 122 148 182 250 224 70 29 67
29 83 10z m76 -216 c9 -15 44 -150 44 -172 0 -13 -24 -30 -85 -58 -88 -41
-105 -42 -105 -8 0 15 17 28 65 50 36 17 65 33 65 36 0 13 -23 93 -27 93 -2 0
-38 -15 -79 -34 l-74 -35 3 -47 2 -46 -104 -44 c-57 -24 -116 -44 -131 -44
-33 0 -50 -17 -50 -51 0 -32 15 -46 55 -51 40 -4 49 -44 12 -53 -69 -18 -140
59 -121 132 10 43 61 83 103 83 14 0 61 14 104 32 l77 32 -6 46 -6 46 113 52
c121 55 134 58 145 41z m247 -524 c-7 -66 11 -136 45 -176 32 -39 24 -70 -31
-107 -145 -100 -306 -129 -413 -74 -48 24 -69 47 -89 95 -20 48 -19 72 6 123
24 50 83 84 146 84 61 0 159 34 243 84 89 54 101 50 93 -29z"/>
<path d="M3325 2961 c-45 -29 -142 -58 -219 -66 -53 -5 -74 -12 -92 -30 -52
-52 -17 -149 63 -176 86 -28 230 2 325 68 l38 25 -19 27 c-20 28 -36 75 -46
134 -7 43 -9 43 -50 18z"/>
</g>
</svg>
